<svg width="86" height="31" viewBox="0 0 86 31" fill="none" xmlns="http://www.w3.org/2000/svg">
<g clip-path="url(#clip0_346_334)">
<path fill-rule="evenodd" clip-rule="evenodd" d="M69.0141 0C59.6057 0 52 6.98576 52 15.6281C52 22.5364 56.8733 28.3841 63.6337 30.4538C64.479 30.6094 64.7886 30.1175 64.7886 29.7038C64.7886 29.3414 64.7607 28.0996 64.7607 26.8056C60.0278 27.7373 59.0422 24.9426 59.0422 24.9426C58.2816 23.1314 57.1546 22.6659 57.1546 22.6659C55.6056 21.7086 57.2675 21.7086 57.2675 21.7086C58.9858 21.8121 59.8875 23.3127 59.8875 23.3127C61.4083 25.693 63.8591 25.0204 64.845 24.6064C64.9857 23.5972 65.4367 22.8987 65.9156 22.5106C62.1407 22.1483 58.1691 20.8029 58.1691 14.8C58.1691 13.0923 58.8448 11.6951 59.9153 10.6085C59.7464 10.2205 59.1547 8.61598 60.0846 6.46849C60.0846 6.46849 61.5212 6.05443 64.7604 8.07268C66.1472 7.73059 67.5774 7.55656 69.0141 7.5551C70.4507 7.5551 71.9151 7.73641 73.2674 8.07268C76.507 6.05443 77.9435 6.46849 77.9435 6.46849C78.8734 8.61598 78.2814 10.2205 78.1124 10.6085C79.2112 11.6951 79.859 13.0923 79.859 14.8C79.859 20.8029 75.8874 22.1223 72.0844 22.5106C72.7043 23.0022 73.2392 23.9335 73.2392 25.4085C73.2392 27.5042 73.2113 29.1862 73.2113 29.7034C73.2113 30.1175 73.5213 30.6094 74.3662 30.4541C81.1267 28.3838 85.9999 22.5364 85.9999 15.6281C86.0278 6.98576 78.3942 0 69.0141 0Z" fill="#24292F"/>
</g>
<g clip-path="url(#clip1_346_334)">
<path d="M31.4901 0H2.50986C1.8442 0 1.20581 0.241099 0.735122 0.670258C0.264431 1.09942 0 1.68148 0 2.2884V28.7116C0 29.3185 0.264431 29.9006 0.735122 30.3297C1.20581 30.7589 1.8442 31 2.50986 31H31.4901C32.1558 31 32.7942 30.7589 33.2649 30.3297C33.7356 29.9006 34 29.3185 34 28.7116V2.2884C34 1.68148 33.7356 1.09942 33.2649 0.670258C32.7942 0.241099 32.1558 0 31.4901 0ZM10.1339 26.4081H5.02208V11.6035H10.1339V26.4081ZM7.57445 9.55188C6.9946 9.5489 6.42871 9.38938 5.94821 9.09345C5.4677 8.79751 5.09411 8.37844 4.87458 7.8891C4.65505 7.39976 4.59942 6.8621 4.71471 6.34396C4.83 5.82583 5.11105 5.35044 5.52239 4.9778C5.93372 4.60516 6.4569 4.35197 7.02591 4.25018C7.59492 4.14839 8.18424 4.20256 8.71951 4.40586C9.25479 4.60915 9.71201 4.95247 10.0335 5.39247C10.355 5.83247 10.5263 6.34943 10.5258 6.87813C10.5313 7.23209 10.4586 7.58343 10.3119 7.91121C10.1653 8.23899 9.94781 8.5365 9.67239 8.786C9.39698 9.03551 9.06929 9.23191 8.70885 9.36349C8.34842 9.49507 7.96262 9.55913 7.57445 9.55188ZM28.9756 26.421H23.8661V18.3331C23.8661 15.9478 22.754 15.2115 21.3185 15.2115C19.8026 15.2115 18.3151 16.2535 18.3151 18.3933V26.421H13.2033V11.6142H18.1192V13.6658H18.1853C18.6788 12.7552 20.4071 11.1988 23.0444 11.1988C25.8967 11.1988 28.9779 12.7423 28.9779 17.2631L28.9756 26.421Z" fill="#0A66C2"/>
</g>
<defs>
<clipPath id="clip0_346_334">
<rect width="34" height="31" fill="white" transform="translate(52)"/>
</clipPath>
<clipPath id="clip1_346_334">
<rect width="34" height="31" fill="white"/>
</clipPath>
</defs>
</svg>
