<svg width="287" height="304" viewBox="0 0 287 304" fill="none" xmlns="http://www.w3.org/2000/svg">
<g clip-path="url(#clip0_346_344)">
<path fill-rule="evenodd" clip-rule="evenodd" d="M270.014 0C260.606 0 253 6.98576 253 15.6281C253 22.5364 257.873 28.3841 264.634 30.4538C265.479 30.6094 265.789 30.1175 265.789 29.7038C265.789 29.3414 265.761 28.0996 265.761 26.8056C261.028 27.7373 260.042 24.9426 260.042 24.9426C259.282 23.1314 258.155 22.6659 258.155 22.6659C256.606 21.7086 258.267 21.7086 258.267 21.7086C259.986 21.8121 260.887 23.3127 260.887 23.3127C262.408 25.693 264.859 25.0204 265.845 24.6064C265.986 23.5972 266.437 22.8987 266.916 22.5106C263.141 22.1483 259.169 20.8029 259.169 14.8C259.169 13.0923 259.845 11.6951 260.915 10.6085C260.746 10.2205 260.155 8.61598 261.085 6.46849C261.085 6.46849 262.521 6.05443 265.76 8.07268C267.147 7.73059 268.577 7.55656 270.014 7.5551C271.451 7.5551 272.915 7.73641 274.267 8.07268C277.507 6.05443 278.944 6.46849 278.944 6.46849C279.873 8.61598 279.281 10.2205 279.112 10.6085C280.211 11.6951 280.859 13.0923 280.859 14.8C280.859 20.8029 276.887 22.1223 273.084 22.5106C273.704 23.0022 274.239 23.9335 274.239 25.4085C274.239 27.5042 274.211 29.1862 274.211 29.7034C274.211 30.1175 274.521 30.6094 275.366 30.4541C282.127 28.3838 287 22.5364 287 15.6281C287.028 6.98576 279.394 0 270.014 0Z" fill="#24292F"/>
</g>
<g clip-path="url(#clip1_346_344)">
<path d="M232.49 0H203.51C202.844 0 202.206 0.241099 201.735 0.670258C201.264 1.09942 201 1.68148 201 2.2884V28.7116C201 29.3185 201.264 29.9006 201.735 30.3297C202.206 30.7589 202.844 31 203.51 31H232.49C233.156 31 233.794 30.7589 234.265 30.3297C234.736 29.9006 235 29.3185 235 28.7116V2.2884C235 1.68148 234.736 1.09942 234.265 0.670258C233.794 0.241099 233.156 0 232.49 0ZM211.134 26.4081H206.022V11.6035H211.134V26.4081ZM208.574 9.55188C207.995 9.5489 207.429 9.38938 206.948 9.09345C206.468 8.79751 206.094 8.37844 205.875 7.8891C205.655 7.39976 205.599 6.8621 205.715 6.34396C205.83 5.82583 206.111 5.35044 206.522 4.9778C206.934 4.60516 207.457 4.35197 208.026 4.25018C208.595 4.14839 209.184 4.20256 209.72 4.40586C210.255 4.60915 210.712 4.95247 211.033 5.39247C211.355 5.83247 211.526 6.34943 211.526 6.87813C211.531 7.23209 211.459 7.58343 211.312 7.91121C211.165 8.23899 210.948 8.5365 210.672 8.786C210.397 9.03551 210.069 9.23191 209.709 9.36349C209.348 9.49507 208.963 9.55913 208.574 9.55188ZM229.976 26.421H224.866V18.3331C224.866 15.9478 223.754 15.2115 222.318 15.2115C220.803 15.2115 219.315 16.2535 219.315 18.3933V26.421H214.203V11.6142H219.119V13.6658H219.185C219.679 12.7552 221.407 11.1988 224.044 11.1988C226.897 11.1988 229.978 12.7423 229.978 17.2631L229.976 26.421Z" fill="#0A66C2"/>
</g>
<g clip-path="url(#clip2_346_344)">
<path fill-rule="evenodd" clip-rule="evenodd" d="M69.0141 273C59.6057 273 52 279.986 52 288.628C52 295.536 56.8733 301.384 63.6337 303.454C64.479 303.609 64.7886 303.118 64.7886 302.704C64.7886 302.341 64.7607 301.1 64.7607 299.806C60.0278 300.737 59.0422 297.943 59.0422 297.943C58.2816 296.131 57.1546 295.666 57.1546 295.666C55.6056 294.709 57.2675 294.709 57.2675 294.709C58.9858 294.812 59.8875 296.313 59.8875 296.313C61.4083 298.693 63.8591 298.02 64.845 297.606C64.9857 296.597 65.4367 295.899 65.9156 295.511C62.1407 295.148 58.1691 293.803 58.1691 287.8C58.1691 286.092 58.8448 284.695 59.9153 283.609C59.7464 283.22 59.1547 281.616 60.0846 279.468C60.0846 279.468 61.5212 279.054 64.7604 281.073C66.1472 280.731 67.5774 280.557 69.0141 280.555C70.4507 280.555 71.9151 280.736 73.2674 281.073C76.507 279.054 77.9435 279.468 77.9435 279.468C78.8734 281.616 78.2814 283.22 78.1124 283.609C79.2112 284.695 79.859 286.092 79.859 287.8C79.859 293.803 75.8874 295.122 72.0844 295.511C72.7043 296.002 73.2392 296.934 73.2392 298.408C73.2392 300.504 73.2113 302.186 73.2113 302.703C73.2113 303.118 73.5213 303.609 74.3662 303.454C81.1267 301.384 85.9999 295.536 85.9999 288.628C86.0278 279.986 78.3942 273 69.0141 273Z" fill="#24292F"/>
</g>
<g clip-path="url(#clip3_346_344)">
<path d="M31.4901 273H2.50986C1.8442 273 1.20581 273.241 0.735122 273.67C0.264431 274.099 0 274.681 0 275.288V301.712C0 302.319 0.264431 302.901 0.735122 303.33C1.20581 303.759 1.8442 304 2.50986 304H31.4901C32.1558 304 32.7942 303.759 33.2649 303.33C33.7356 302.901 34 302.319 34 301.712V275.288C34 274.681 33.7356 274.099 33.2649 273.67C32.7942 273.241 32.1558 273 31.4901 273ZM10.1339 299.408H5.02208V284.603H10.1339V299.408ZM7.57445 282.552C6.9946 282.549 6.42871 282.389 5.94821 282.093C5.4677 281.798 5.09411 281.378 4.87458 280.889C4.65505 280.4 4.59942 279.862 4.71471 279.344C4.83 278.826 5.11105 278.35 5.52239 277.978C5.93372 277.605 6.4569 277.352 7.02591 277.25C7.59492 277.148 8.18424 277.203 8.71951 277.406C9.25479 277.609 9.71201 277.952 10.0335 278.392C10.355 278.832 10.5263 279.349 10.5258 279.878C10.5313 280.232 10.4586 280.583 10.3119 280.911C10.1653 281.239 9.94781 281.536 9.67239 281.786C9.39698 282.036 9.06929 282.232 8.70885 282.363C8.34842 282.495 7.96262 282.559 7.57445 282.552ZM28.9756 299.421H23.8661V291.333C23.8661 288.948 22.754 288.212 21.3185 288.212C19.8026 288.212 18.3151 289.253 18.3151 291.393V299.421H13.2033V284.614H18.1192V286.666H18.1853C18.6788 285.755 20.4071 284.199 23.0444 284.199C25.8967 284.199 28.9779 285.742 28.9779 290.263L28.9756 299.421Z" fill="#0A66C2"/>
</g>
<defs>
<clipPath id="clip0_346_344">
<rect width="34" height="31" fill="white" transform="translate(253)"/>
</clipPath>
<clipPath id="clip1_346_344">
<rect width="34" height="31" fill="white" transform="translate(201)"/>
</clipPath>
<clipPath id="clip2_346_344">
<rect width="34" height="31" fill="white" transform="translate(52 273)"/>
</clipPath>
<clipPath id="clip3_346_344">
<rect width="34" height="31" fill="white" transform="translate(0 273)"/>
</clipPath>
</defs>
</svg>
