<svg width="34" height="31" viewBox="0 0 34 31" fill="none" xmlns="http://www.w3.org/2000/svg">
<path d="M31.4901 0H2.50986C1.8442 0 1.20581 0.241099 0.735122 0.670258C0.264431 1.09942 0 1.68148 0 2.2884V28.7116C0 29.3185 0.264431 29.9006 0.735122 30.3297C1.20581 30.7589 1.8442 31 2.50986 31H31.4901C32.1558 31 32.7942 30.7589 33.2649 30.3297C33.7356 29.9006 34 29.3185 34 28.7116V2.2884C34 1.68148 33.7356 1.09942 33.2649 0.670258C32.7942 0.241099 32.1558 0 31.4901 0ZM10.1339 26.4081H5.02208V11.6035H10.1339V26.4081ZM7.57445 9.55188C6.9946 9.5489 6.42871 9.38938 5.94821 9.09345C5.4677 8.79752 5.09411 8.37844 4.87458 7.8891C4.65505 7.39976 4.59942 6.8621 4.71471 6.34396C4.83 5.82583 5.11105 5.35044 5.52239 4.9778C5.93372 4.60516 6.4569 4.35197 7.02591 4.25018C7.59492 4.14839 8.18424 4.20256 8.71952 4.40586C9.25479 4.60915 9.71201 4.95247 10.0335 5.39247C10.355 5.83247 10.5263 6.34943 10.5258 6.87813C10.5313 7.23209 10.4586 7.58343 10.3119 7.91121C10.1653 8.23899 9.94781 8.5365 9.67239 8.786C9.39698 9.03551 9.06929 9.23191 8.70885 9.36349C8.34842 9.49507 7.96262 9.55913 7.57445 9.55188ZM28.9756 26.421H23.8661V18.3331C23.8661 15.9478 22.754 15.2115 21.3185 15.2115C19.8026 15.2115 18.3151 16.2535 18.3151 18.3933V26.421H13.2033V11.6142H18.1192V13.6658H18.1853C18.6788 12.7552 20.4071 11.1988 23.0444 11.1988C25.8967 11.1988 28.9779 12.7423 28.9779 17.2631L28.9756 26.421Z" fill="#0A66C2"/>
</svg>
