<svg width="34" height="31" viewBox="0 0 34 31" fill="none" xmlns="http://www.w3.org/2000/svg">
<g clip-path="url(#clip0_367_1674)">
<path fill-rule="evenodd" clip-rule="evenodd" d="M17.0141 0C7.60573 0 0 6.98576 0 15.6281C0 22.5364 4.87325 28.3841 11.6337 30.4538C12.479 30.6094 12.7886 30.1175 12.7886 29.7038C12.7886 29.3414 12.7607 28.0996 12.7607 26.8056C8.02782 27.7373 7.04224 24.9426 7.04224 24.9426C6.28163 23.1314 5.15465 22.6659 5.15465 22.6659C3.60557 21.7086 5.26749 21.7086 5.26749 21.7086C6.98582 21.8121 7.88747 23.3127 7.88747 23.3127C9.40834 25.693 11.8591 25.0204 12.845 24.6064C12.9857 23.5972 13.4367 22.8987 13.9156 22.5106C10.1407 22.1483 6.16914 20.8029 6.16914 14.8C6.16914 13.0923 6.84477 11.6951 7.91533 10.6085C7.74643 10.2205 7.15473 8.61598 8.08459 6.46849C8.08459 6.46849 9.52118 6.05443 12.7604 8.07268C14.1472 7.73059 15.5774 7.55656 17.0141 7.5551C18.4507 7.5551 19.9151 7.73641 21.2674 8.07268C24.507 6.05443 25.9435 6.46849 25.9435 6.46849C26.8734 8.61598 26.2814 10.2205 26.1125 10.6085C27.2112 11.6951 27.859 13.0923 27.859 14.8C27.859 20.8029 23.8874 22.1223 20.0844 22.5106C20.7043 23.0022 21.2392 23.9335 21.2392 25.4085C21.2392 27.5042 21.2113 29.1862 21.2113 29.7034C21.2113 30.1175 21.5213 30.6094 22.3662 30.4541C29.1267 28.3838 33.9999 22.5364 33.9999 15.6281C34.0278 6.98576 26.3942 0 17.0141 0Z" fill="#24292F"/>
</g>
<defs>
<clipPath id="clip0_367_1674">
<rect width="34" height="31" fill="white"/>
</clipPath>
</defs>
</svg>
